# This file uses centimeters as units for non-parametric coordinates.

mtllib Cylinder.mtl
g default
v 561.598328 -100.748297 -183.861198
v 477.724121 -100.748297 -348.473503
v 347.086823 -100.748297 -479.110465
v 182.474380 -100.748297 -562.985343
v 0.000024 -100.748297 -591.886100
v -182.474274 -100.748297 -562.985343
v -347.086670 -100.748297 -479.110343
v -477.723938 -100.748297 -348.473381
v -561.598022 -100.748297 -183.861198
v -590.499268 -100.748297 -1.386833
v -561.598022 -100.748297 181.086068
v -477.723907 -100.748297 345.700081
v -347.086639 -100.748297 476.336190
v -182.474228 -100.748297 560.209603
v 0.000006 -100.748297 589.109993
v 182.474274 -100.748297 560.209481
v 347.086609 -100.748297 476.336190
v 477.723846 -100.748297 345.700081
v 561.597961 -100.748297 181.086068
v 590.499146 -100.748297 -1.386833
v 225.711136 299.251703 -74.725212
v 192.001328 299.251703 -140.885978
v 139.497223 299.251703 -193.389762
v 73.337944 299.251703 -227.099479
v -0.000019 299.251703 -238.715690
v -73.338020 299.251703 -227.099479
v -139.497223 299.251703 -193.389884
v -192.001282 299.251703 -140.885856
v -225.711182 299.251703 -74.725090
v -237.326645 299.251703 -1.386833
v -225.711182 299.251703 71.951180
v -192.001282 299.251703 138.110360
v -139.497192 299.251703 190.614266
v -73.338013 299.251703 224.324593
v -0.000026 299.251703 235.939827
v 73.337936 299.251703 224.324471
v 139.497131 299.251703 190.614266
v 192.001190 299.251703 138.110360
v 225.711090 299.251703 71.951180
v 237.326553 299.251703 -1.386833
v 0.000024 -100.748297 -1.386833
v -0.000019 299.251703 -1.386833
v -255.210785 238.073038 -84.310173
v -296.052795 162.783689 -97.580558
v -356.222626 87.494335 -117.130912
v -427.074188 12.204981 -140.151847
v -513.185364 -63.084357 -168.131034
v -436.541809 -63.084585 -318.553092
v -363.291107 12.204889 -265.333793
v -303.021088 87.494349 -221.545402
v -251.837463 162.783808 -184.358695
v -217.095032 238.073267 -159.117240
v -317.166138 -63.084662 -437.928520
v -263.946442 12.204851 -364.678337
v -220.157715 87.494349 -304.408561
v -182.970642 162.783834 -253.225273
v -157.728821 238.073343 -218.483268
v -166.744095 -63.084479 -514.572929
v -138.764832 12.204950 -428.461845
v -115.743759 87.494376 -357.610343
v -96.193382 162.783796 -297.440666
v -82.922974 238.073236 -256.598747
v 0.000017 -63.084692 -540.982536
v 0.000006 12.204836 -450.440116
v -0.000004 87.494355 -375.942497
v -0.000014 162.783861 -312.676383
v -0.000017 238.073374 -269.732719
v 166.744171 -63.084524 -514.572929
v 138.764893 12.204912 -428.461845
v 115.743759 87.494342 -357.610465
v 96.193359 162.783769 -297.440788
v 82.922928 238.073206 -256.598869
v 317.166229 -63.084540 -437.928520
v 263.946503 12.204897 -364.678337
v 220.157761 87.494342 -304.408561
v 182.970718 162.783781 -253.225273
v 157.728882 238.073236 -218.483268
v 436.541870 -63.084448 -318.553092
v 363.291138 12.204958 -265.333793
v 303.021179 87.494369 -221.545402
v 251.837555 162.783769 -184.358757
v 217.095154 238.073175 -159.117301
v 513.185608 -63.084311 -168.131034
v 427.074341 12.205011 -140.151969
v 356.222717 87.494349 -117.130912
v 296.052856 162.783689 -97.580558
v 255.210800 238.073007 -84.310234
v 539.594971 -63.084295 -1.386894
v 449.052277 12.205026 -1.386955
v 374.554504 87.494355 -1.386955
v 311.288208 162.783689 -1.386955
v 268.344330 238.073007 -1.386894
v 513.185364 -63.084418 165.355965
v 427.074097 12.204965 137.376961
v 356.222534 87.494355 114.356087
v 296.052673 162.783743 94.806038
v 255.210632 238.073114 81.535897
v 436.541504 -63.084295 315.779305
v 363.290894 12.205019 262.559578
v 303.020966 87.494355 218.770760
v 251.837433 162.783705 181.583748
v 217.095108 238.073038 156.342049
v 317.165985 -63.084479 435.154061
v 263.946350 12.204927 361.903573
v 220.157654 87.494328 301.633675
v 182.970627 162.783731 250.450203
v 157.728836 238.073114 215.708016
v 166.744125 -63.084707 511.797249
v 138.764847 12.204828 425.686287
v 115.743706 87.494355 354.834847
v 96.193291 162.783861 294.665291
v 82.922859 238.073404 253.823494
v 0.000001 -63.084692 538.206429
v -0.000008 12.204836 447.663949
v -0.000015 87.494349 373.166512
v -0.000023 162.783861 309.900521
v -0.000025 238.073374 266.956795
v -166.744095 -63.084631 511.797249
v -138.764832 12.204866 425.686410
v -115.743744 87.494355 354.834969
v -96.193352 162.783834 294.665413
v -82.922935 238.073313 253.823617
v -317.166016 -63.084402 435.154061
v -263.946381 12.204965 361.903573
v -220.157684 87.494328 301.633675
v -182.970703 162.783705 250.450203
v -157.728943 238.073068 215.708138
v -436.541595 -63.084311 315.779305
v -363.291016 12.205011 262.559578
v -303.021057 87.494355 218.770760
v -251.837540 162.783689 181.583748
v -217.095200 238.073038 156.342049
v -513.185425 -63.084372 165.355965
v -427.074219 12.204981 137.376961
v -356.222626 87.494342 114.356087
v -296.052795 162.783716 94.806038
v -255.210754 238.073068 81.535897
v -539.595093 -63.084295 -1.386894
v -449.052399 12.205019 -1.386955
v -374.554626 87.494349 -1.386955
v -311.288361 162.783678 -1.386955
v -268.344482 238.073007 -1.386894
vt 0.632800 0.515825
vt 0.602992 0.456179
vt 0.556036 0.408632
vt 0.496524 0.378002
vt 0.430378 0.367420
vt 0.364227 0.377974
vt 0.304703 0.408580
vt 0.257728 0.456108
vt 0.227896 0.515742
vt 0.218029 0.581517
vt 0.228940 0.646948
vt 0.259410 0.705683
vt 0.306367 0.752103
vt 0.365216 0.781821
vt 0.430291 0.792054
vt 0.495370 0.781848
vt 0.554231 0.752154
vt 0.601207 0.705753
vt 0.631701 0.647030
vt 0.642639 0.581604
vt 0.384829 0.820656
vt 0.372942 0.796637
vt 0.354143 0.777455
vt 0.330273 0.765053
vt 0.303704 0.760698
vt 0.277102 0.764837
vt 0.253131 0.777046
vt 0.234178 0.796075
vt 0.222096 0.819996
vt 0.218029 0.846416
vt 0.222313 0.872730
vt 0.234468 0.896384
vt 0.253268 0.915113
vt 0.276874 0.927148
vt 0.303013 0.931361
vt 0.329184 0.927360
vt 0.352887 0.915517
vt 0.371838 0.896941
vt 0.384185 0.873386
vt 0.388682 0.847108
vt 0.430335 0.579169
vt 0.303359 0.845801
vt 0.000000 0.000000
vt 0.053630 0.000000
vt 0.000000 0.027378
vt 0.103990 0.000000
vt 0.053630 0.027378
vt 0.153701 0.000000
vt 0.103990 0.027378
vt 0.203238 0.000000
vt 0.153701 0.027378
vt 0.252727 0.000000
vt 0.203238 0.027378
vt 0.302203 0.000000
vt 0.252727 0.027378
vt 0.351677 0.000000
vt 0.302203 0.027378
vt 0.401150 0.000000
vt 0.351677 0.027378
vt 0.450623 0.000000
vt 0.401150 0.027378
vt 0.500096 0.000000
vt 0.450623 0.027378
vt 0.549569 0.000000
vt 0.500096 0.027378
vt 0.599042 0.000000
vt 0.549569 0.027378
vt 0.648515 0.000000
vt 0.599042 0.027378
vt 0.697989 0.000000
vt 0.648515 0.027378
vt 0.747468 0.000000
vt 0.697989 0.027378
vt 0.796965 0.000000
vt 0.747468 0.027378
vt 0.846521 0.000000
vt 0.796965 0.027378
vt 0.897484 0.000000
vt 0.846521 0.027378
vt 0.947558 0.000000
vt 0.897484 0.027378
vt 1.000000 0.000000
vt 0.947558 0.027378
vt 0.401150 0.203916
vt 0.351677 0.233496
vt 0.351677 0.203916
vt 0.302203 0.233496
vt 0.302203 0.203916
vt 0.252727 0.233496
vt 0.252727 0.203916
vt 0.203238 0.233496
vt 0.203238 0.203916
vt 0.153701 0.233496
vt 0.153701 0.203916
vt 0.103990 0.233496
vt 0.103990 0.203916
vt 0.053630 0.233496
vt 0.053630 0.203916
vt 0.000000 0.233496
vt 1.000000 0.203916
vt 1.000000 0.233496
vt 0.947558 0.233496
vt 0.947558 0.203916
vt 0.897484 0.233496
vt 0.897484 0.203916
vt 0.846521 0.233496
vt 0.846521 0.203916
vt 0.796965 0.233496
vt 0.796965 0.203916
vt 0.747468 0.233496
vt 0.747468 0.203916
vt 0.697989 0.233496
vt 0.697989 0.203916
vt 0.648515 0.233496
vt 0.648515 0.203916
vt 0.599042 0.233496
vt 0.599042 0.203916
vt 0.549569 0.233496
vt 0.549569 0.203916
vt 0.500096 0.233496
vt 0.500096 0.203916
vt 0.450623 0.233496
vt 0.450623 0.203916
vt 0.401150 0.233496
vt 0.000000 0.203916
vt 1.000000 0.027378
vt 0.401150 0.167225
vt 0.401150 0.124119
vt 0.401150 0.078804
vt 0.351677 0.078804
vt 0.351677 0.124119
vt 0.351677 0.167225
vt 0.302203 0.078804
vt 0.302203 0.124119
vt 0.302203 0.167225
vt 0.252727 0.078804
vt 0.252727 0.124119
vt 0.252727 0.167225
vt 0.203238 0.078804
vt 0.203238 0.124119
vt 0.203238 0.167225
vt 0.153701 0.078804
vt 0.153701 0.124119
vt 0.153701 0.167225
vt 0.103990 0.078804
vt 0.103990 0.124119
vt 0.103990 0.167225
vt 0.053630 0.078804
vt 0.053630 0.124119
vt 0.053631 0.167225
vt 1.000000 0.078804
vt 0.000000 0.078804
vt 1.000000 0.124119
vt 0.000000 0.124119
vt 1.000000 0.167225
vt 0.000000 0.167225
vt 0.947558 0.078804
vt 0.947558 0.124119
vt 0.947558 0.167225
vt 0.897484 0.078804
vt 0.897484 0.124119
vt 0.897484 0.167225
vt 0.846521 0.078804
vt 0.846521 0.124119
vt 0.846521 0.167225
vt 0.796965 0.078804
vt 0.796965 0.124119
vt 0.796965 0.167225
vt 0.747468 0.078804
vt 0.747468 0.124119
vt 0.747468 0.167225
vt 0.697989 0.078804
vt 0.697989 0.124119
vt 0.697989 0.167225
vt 0.648515 0.078804
vt 0.648515 0.124119
vt 0.648515 0.167225
vt 0.599042 0.078804
vt 0.599042 0.124119
vt 0.599042 0.167225
vt 0.549569 0.078804
vt 0.549569 0.124119
vt 0.549569 0.167225
vt 0.500096 0.078804
vt 0.500096 0.124119
vt 0.500096 0.167225
vt 0.450623 0.078804
vt 0.450623 0.124119
vt 0.450623 0.167225
vn 0.000000 -1.000000 0.000000
vn 0.000000 -1.000000 0.000000
vn 0.000000 -1.000000 0.000000
vn 0.000000 -1.000000 0.000000
vn 0.000000 -1.000000 0.000000
vn 0.000000 -1.000000 0.000000
vn 0.000000 -1.000000 0.000000
vn 0.000000 -1.000000 0.000000
vn 0.000000 -1.000000 0.000000
vn 0.000000 -1.000000 0.000000
vn 0.000000 -1.000000 0.000000
vn 0.000000 -1.000000 -0.000000
vn 0.000000 -1.000000 -0.000000
vn 0.000000 -1.000000 0.000000
vn 0.000000 -1.000000 0.000000
vn 0.000000 -1.000000 0.000000
vn 0.000000 -1.000000 -0.000000
vn 0.000000 -1.000000 0.000000
vn 0.000000 -1.000000 0.000000
vn 0.000000 -1.000000 0.000000
vn 0.000000 -1.000000 0.000000
vn 0.000000 1.000000 0.000000
vn 0.000000 1.000000 0.000000
vn 0.000000 1.000000 -0.000000
vn 0.000000 1.000000 0.000000
vn 0.000000 1.000000 0.000000
vn 0.000000 1.000000 0.000000
vn 0.000000 1.000000 0.000000
vn 0.000000 1.000000 0.000000
vn 0.000000 1.000000 0.000000
vn 0.000000 1.000000 0.000000
vn 0.000000 1.000000 0.000000
vn 0.000000 1.000000 -0.000000
vn 0.000000 1.000000 0.000000
vn 0.000000 1.000000 0.000000
vn 0.000000 1.000000 0.000000
vn 0.000000 1.000000 0.000000
vn 0.000000 1.000000 0.000000
vn 0.000000 1.000000 0.000000
vn 0.000000 1.000000 0.000000
vn 0.000000 1.000000 -0.000000
vn 0.000000 1.000000 -0.000000
vn -0.590570 0.783841 -0.191888
vn -0.635490 0.743988 -0.206483
vn -0.540580 0.743987 -0.392755
vn -0.502369 0.783840 -0.364993
vn -0.697604 0.679685 -0.226665
vn -0.593418 0.679685 -0.431142
vn -0.770282 0.586538 -0.250278
vn -0.655242 0.586538 -0.476059
vn -0.834903 0.478903 -0.271274
vn -0.710212 0.478902 -0.515996
vn 0.565680 0.803880 -0.183800
vn 0.481196 0.803880 -0.349610
vn 0.502369 0.783840 -0.364993
vn 0.590570 0.783841 -0.191887
vn 0.349610 0.803880 -0.481196
vn 0.364993 0.783840 -0.502369
vn 0.183801 0.803880 -0.565680
vn 0.191888 0.783840 -0.590571
vn 0.000000 0.803880 -0.594792
vn 0.000000 0.783840 -0.620963
vn -0.183801 0.803880 -0.565680
vn -0.191889 0.783840 -0.590571
vn -0.349610 0.803880 -0.481196
vn -0.364994 0.783840 -0.502369
vn -0.481196 0.803880 -0.349609
vn -0.565680 0.803880 -0.183801
vn -0.594792 0.803880 -0.000000
vn -0.620962 0.783841 -0.000000
vn -0.565680 0.803880 0.183801
vn -0.590570 0.783841 0.191888
vn -0.481196 0.803881 0.349609
vn -0.502369 0.783841 0.364992
vn -0.349608 0.803880 0.481198
vn -0.364991 0.783840 0.502371
vn -0.183799 0.803880 0.565681
vn -0.191886 0.783840 0.590572
vn 0.000000 0.803880 0.594791
vn 0.000000 0.783840 0.620963
vn 0.183799 0.803880 0.565681
vn 0.191886 0.783840 0.590572
vn 0.349608 0.803880 0.481197
vn 0.364990 0.783840 0.502371
vn 0.481196 0.803880 0.349609
vn 0.502369 0.783841 0.364992
vn 0.565680 0.803880 0.183800
vn 0.590570 0.783841 0.191888
vn 0.594791 0.803880 0.000001
vn 0.620962 0.783841 0.000001
vn -0.848263 0.452203 -0.275614
vn -0.721578 0.452201 -0.524252
vn -0.515998 0.478901 -0.710212
vn -0.524254 0.452200 -0.721577
vn -0.271278 0.478901 -0.834903
vn -0.275619 0.452199 -0.848263
vn -0.000000 0.478901 -0.877869
vn -0.000000 0.452199 -0.891917
vn 0.271278 0.478901 -0.834902
vn 0.275620 0.452200 -0.848262
vn 0.515997 0.478901 -0.710211
vn 0.524254 0.452200 -0.721577
vn 0.710212 0.478902 -0.515996
vn 0.721577 0.452201 -0.524252
vn 0.834903 0.478903 -0.271273
vn 0.848263 0.452202 -0.275613
vn 0.877868 0.478904 0.000001
vn 0.891915 0.452203 0.000001
vn 0.834902 0.478903 0.271276
vn 0.848262 0.452203 0.275617
vn 0.710210 0.478903 0.515998
vn 0.721574 0.452202 0.524255
vn 0.515997 0.478902 0.710211
vn 0.524256 0.452201 0.721575
vn 0.271276 0.478901 0.834903
vn 0.275618 0.452199 0.848263
vn 0.000000 0.478900 0.877870
vn 0.000001 0.452197 0.891918
vn -0.271275 0.478901 0.834904
vn -0.275617 0.452199 0.848264
vn -0.515998 0.478902 0.710211
vn -0.524256 0.452202 0.721574
vn -0.710210 0.478903 0.515998
vn -0.721575 0.452202 0.524255
vn -0.834902 0.478903 0.271276
vn -0.848262 0.452203 0.275617
vn -0.877868 0.478904 0.000000
vn -0.891915 0.452204 0.000000
vn -0.476060 0.586537 -0.655241
vn -0.431144 0.679684 -0.593418
vn -0.392755 0.743987 -0.540581
vn -0.250281 0.586537 -0.770282
vn -0.226666 0.679685 -0.697604
vn -0.206484 0.743987 -0.635490
vn -0.000000 0.586537 -0.809922
vn -0.000000 0.679684 -0.733505
vn 0.000000 0.743987 -0.668195
vn 0.250281 0.586537 -0.770282
vn 0.226666 0.679685 -0.697604
vn 0.206484 0.743987 -0.635490
vn 0.476060 0.586537 -0.655241
vn 0.431143 0.679684 -0.593418
vn 0.392755 0.743987 -0.540581
vn 0.655241 0.586538 -0.476059
vn 0.593417 0.679685 -0.431142
vn 0.540580 0.743987 -0.392755
vn 0.770282 0.586538 -0.250277
vn 0.697604 0.679686 -0.226664
vn 0.635490 0.743988 -0.206482
vn 0.809921 0.586539 0.000001
vn 0.733504 0.679685 0.000001
vn 0.668193 0.743988 0.000001
vn 0.770281 0.586538 0.250280
vn 0.697604 0.679685 0.226665
vn 0.635490 0.743988 0.206483
vn 0.655240 0.586538 0.476060
vn 0.593417 0.679686 0.431142
vn 0.540580 0.743988 0.392753
vn 0.476059 0.586538 0.655242
vn 0.431141 0.679685 0.593418
vn 0.392752 0.743987 0.540582
vn 0.250278 0.586537 0.770283
vn 0.226663 0.679684 0.697605
vn 0.206481 0.743987 0.635492
vn 0.000000 0.586536 0.809923
vn 0.000000 0.679683 0.733506
vn 0.000000 0.743986 0.668195
vn -0.250278 0.586537 0.770283
vn -0.226663 0.679684 0.697605
vn -0.206481 0.743987 0.635492
vn -0.476059 0.586538 0.655242
vn -0.431141 0.679685 0.593418
vn -0.392752 0.743988 0.540581
vn -0.655240 0.586538 0.476060
vn -0.593417 0.679686 0.431142
vn -0.540579 0.743988 0.392754
vn -0.770281 0.586538 0.250280
vn -0.697604 0.679685 0.226665
vn -0.635490 0.743988 0.206483
vn -0.809922 0.586538 -0.000000
vn -0.733504 0.679685 -0.000000
vn -0.668193 0.743988 -0.000000
s 1
g pCylinder2
usemtl lambert14SG
f 2/2/1 1/1/2 41/41/3
f 3/3/4 2/2/1 41/41/3
f 4/4/5 3/3/4 41/41/3
f 5/5/6 4/4/5 41/41/3
f 6/6/7 5/5/6 41/41/3
f 7/7/8 6/6/7 41/41/3
f 8/8/9 7/7/8 41/41/3
f 9/9/10 8/8/9 41/41/3
f 10/10/11 9/9/10 41/41/3
f 11/11/12 10/10/11 41/41/3
f 12/12/13 11/11/12 41/41/3
f 13/13/14 12/12/13 41/41/3
f 14/14/15 13/13/14 41/41/3
f 15/15/16 14/14/15 41/41/3
f 16/16/17 15/15/16 41/41/3
f 17/17/18 16/16/17 41/41/3
f 18/18/19 17/17/18 41/41/3
f 19/19/20 18/18/19 41/41/3
f 20/20/21 19/19/20 41/41/3
f 1/1/2 20/20/21 41/41/3
s 2
f 21/39/22 22/38/23 42/42/24
f 22/38/23 23/37/25 42/42/24
f 23/37/25 24/36/26 42/42/24
f 24/36/26 25/35/27 42/42/24
f 25/35/27 26/34/28 42/42/24
f 26/34/28 27/33/29 42/42/24
f 27/33/29 28/32/30 42/42/24
f 28/32/30 29/31/31 42/42/24
f 29/31/31 30/30/32 42/42/24
f 30/30/32 31/29/33 42/42/24
f 31/29/33 32/28/34 42/42/24
f 32/28/34 33/27/35 42/42/24
f 33/27/35 34/26/36 42/42/24
f 34/26/36 35/25/37 42/42/24
f 35/25/37 36/24/38 42/42/24
f 36/24/38 37/23/39 42/42/24
f 37/23/39 38/22/40 42/42/24
f 38/22/40 39/21/41 42/42/24
f 39/21/41 40/40/42 42/42/24
f 40/40/42 21/39/22 42/42/24
s 3
usemtl lambert13SG
f 47/61/43 46/129/44 49/130/45 48/59/46
f 46/129/44 45/128/47 50/131/48 49/130/45
f 45/128/47 44/127/49 51/132/50 50/131/48
f 44/127/49 43/84/51 52/86/52 51/132/50
f 1/43/53 2/44/54 78/47/55 83/45/56
f 2/44/54 3/46/57 73/49/58 78/47/55
f 3/46/57 4/48/59 68/51/60 73/49/58
f 4/48/59 5/50/61 63/53/62 68/51/60
f 5/50/61 6/52/63 58/55/64 63/53/62
f 6/52/63 7/54/65 53/57/66 58/55/64
f 7/54/65 8/56/67 48/59/46 53/57/66
f 8/56/67 9/58/68 47/61/43 48/59/46
f 9/58/68 10/60/69 138/63/70 47/61/43
f 10/60/69 11/62/71 133/65/72 138/63/70
f 11/62/71 12/64/73 128/67/74 133/65/72
f 12/64/73 13/66/75 123/69/76 128/67/74
f 13/66/75 14/68/77 118/71/78 123/69/76
f 14/68/77 15/70/79 113/73/80 118/71/78
f 15/70/79 16/72/81 108/75/82 113/73/80
f 16/72/81 17/74/83 103/77/84 108/75/82
f 17/74/83 18/76/85 98/79/86 103/77/84
f 18/76/85 19/78/87 93/81/88 98/79/86
f 19/78/87 20/80/89 88/83/90 93/81/88
f 20/80/89 1/82/53 83/126/56 88/83/90
f 52/86/52 43/84/51 29/124/91 28/85/92
f 57/88/93 52/86/52 28/85/92 27/87/94
f 62/90/95 57/88/93 27/87/94 26/89/96
f 67/92/97 62/90/95 26/89/96 25/91/98
f 72/94/99 67/92/97 25/91/98 24/93/100
f 77/96/101 72/94/99 24/93/100 23/95/102
f 82/98/103 77/96/101 23/95/102 22/97/104
f 87/125/105 82/98/103 22/97/104 21/99/106
f 92/103/107 87/100/105 21/101/106 40/102/108
f 97/105/109 92/103/107 40/102/108 39/104/110
f 102/107/111 97/105/109 39/104/110 38/106/112
f 107/109/113 102/107/111 38/106/112 37/108/114
f 112/111/115 107/109/113 37/108/114 36/110/116
f 117/113/117 112/111/115 36/110/116 35/112/118
f 122/115/119 117/113/117 35/112/118 34/114/120
f 127/117/121 122/115/119 34/114/120 33/116/122
f 132/119/123 127/117/121 33/116/122 32/118/124
f 137/121/125 132/119/123 32/118/124 31/120/126
f 142/123/127 137/121/125 31/120/126 30/122/128
f 43/84/51 142/123/127 30/122/128 29/124/91
f 51/132/50 52/86/52 57/88/93 56/135/129
f 50/131/48 51/132/50 56/135/129 55/134/130
f 48/59/46 49/130/45 54/133/131 53/57/66
f 49/130/45 50/131/48 55/134/130 54/133/131
f 56/135/129 57/88/93 62/90/95 61/138/132
f 55/134/130 56/135/129 61/138/132 60/137/133
f 53/57/66 54/133/131 59/136/134 58/55/64
f 54/133/131 55/134/130 60/137/133 59/136/134
f 61/138/132 62/90/95 67/92/97 66/141/135
f 60/137/133 61/138/132 66/141/135 65/140/136
f 58/55/64 59/136/134 64/139/137 63/53/62
f 59/136/134 60/137/133 65/140/136 64/139/137
f 66/141/135 67/92/97 72/94/99 71/144/138
f 65/140/136 66/141/135 71/144/138 70/143/139
f 63/53/62 64/139/137 69/142/140 68/51/60
f 64/139/137 65/140/136 70/143/139 69/142/140
f 71/144/138 72/94/99 77/96/101 76/147/141
f 70/143/139 71/144/138 76/147/141 75/146/142
f 68/51/60 69/142/140 74/145/143 73/49/58
f 69/142/140 70/143/139 75/146/142 74/145/143
f 76/147/141 77/96/101 82/98/103 81/150/144
f 75/146/142 76/147/141 81/150/144 80/149/145
f 73/49/58 74/145/143 79/148/146 78/47/55
f 74/145/143 75/146/142 80/149/145 79/148/146
f 81/150/144 82/98/103 87/125/105 86/156/147
f 80/149/145 81/150/144 86/156/147 85/154/148
f 78/47/55 79/148/146 84/152/149 83/45/56
f 79/148/146 80/149/145 85/154/148 84/152/149
f 86/155/147 87/100/105 92/103/107 91/159/150
f 85/153/148 86/155/147 91/159/150 90/158/151
f 83/126/56 84/151/149 89/157/152 88/83/90
f 84/151/149 85/153/148 90/158/151 89/157/152
f 91/159/150 92/103/107 97/105/109 96/162/153
f 90/158/151 91/159/150 96/162/153 95/161/154
f 88/83/90 89/157/152 94/160/155 93/81/88
f 89/157/152 90/158/151 95/161/154 94/160/155
f 96/162/153 97/105/109 102/107/111 101/165/156
f 95/161/154 96/162/153 101/165/156 100/164/157
f 93/81/88 94/160/155 99/163/158 98/79/86
f 94/160/155 95/161/154 100/164/157 99/163/158
f 101/165/156 102/107/111 107/109/113 106/168/159
f 100/164/157 101/165/156 106/168/159 105/167/160
f 98/79/86 99/163/158 104/166/161 103/77/84
f 99/163/158 100/164/157 105/167/160 104/166/161
f 106/168/159 107/109/113 112/111/115 111/171/162
f 105/167/160 106/168/159 111/171/162 110/170/163
f 103/77/84 104/166/161 109/169/164 108/75/82
f 104/166/161 105/167/160 110/170/163 109/169/164
f 111/171/162 112/111/115 117/113/117 116/174/165
f 110/170/163 111/171/162 116/174/165 115/173/166
f 108/75/82 109/169/164 114/172/167 113/73/80
f 109/169/164 110/170/163 115/173/166 114/172/167
f 116/174/165 117/113/117 122/115/119 121/177/168
f 115/173/166 116/174/165 121/177/168 120/176/169
f 113/73/80 114/172/167 119/175/170 118/71/78
f 114/172/167 115/173/166 120/176/169 119/175/170
f 121/177/168 122/115/119 127/117/121 126/180/171
f 120/176/169 121/177/168 126/180/171 125/179/172
f 118/71/78 119/175/170 124/178/173 123/69/76
f 119/175/170 120/176/169 125/179/172 124/178/173
f 126/180/171 127/117/121 132/119/123 131/183/174
f 125/179/172 126/180/171 131/183/174 130/182/175
f 123/69/76 124/178/173 129/181/176 128/67/74
f 124/178/173 125/179/172 130/182/175 129/181/176
f 131/183/174 132/119/123 137/121/125 136/186/177
f 130/182/175 131/183/174 136/186/177 135/185/178
f 128/67/74 129/181/176 134/184/179 133/65/72
f 129/181/176 130/182/175 135/185/178 134/184/179
f 136/186/177 137/121/125 142/123/127 141/189/180
f 135/185/178 136/186/177 141/189/180 140/188/181
f 133/65/72 134/184/179 139/187/182 138/63/70
f 134/184/179 135/185/178 140/188/181 139/187/182
f 43/84/51 44/127/49 141/189/180 142/123/127
f 44/127/49 45/128/47 140/188/181 141/189/180
f 45/128/47 46/129/44 139/187/182 140/188/181
f 46/129/44 47/61/43 138/63/70 139/187/182
