# This file uses centimeters as units for non-parametric coordinates.

mtllib Ramp_2_Big.mtl
g default
v -300.000000 -300.000000 300.000000
v 300.000000 -300.000000 300.000000
v -300.000000 300.000000 -300.000000
v 300.000000 300.000000 -300.000000
v -300.000000 -300.000000 -300.000000
v 300.000000 -300.000000 -300.000000
v -300.000000 199.123428 -230.189316
v -300.000000 -254.329971 231.424576
v -300.000000 -191.390121 143.079483
v -300.000000 -123.014442 58.871132
v -300.000000 -49.474068 -20.866524
v -300.000000 28.939358 -95.817276
v -300.000000 111.914871 -165.683899
v 300.000000 199.123428 -230.189316
v 300.000000 111.914871 -165.683899
v 300.000000 28.939358 -95.817276
v 300.000000 -49.474068 -20.866524
v 300.000000 -123.014442 58.871132
v 300.000000 -191.390121 143.079483
v 300.000000 -254.329971 231.424576
vt 0.371505 0.000000
vt 0.628495 0.000000
vt 0.628495 0.050020
vt 0.371505 0.050020
vt 0.371505 0.432159
vt 0.628495 0.432159
vt 0.628495 0.500000
vt 0.033786 0.500000
vt 0.290776 0.750000
vt 0.033786 0.750000
vt 0.290776 1.000000
vt 0.033786 1.000000
vt 0.371505 0.371440
vt 0.628495 0.371440
vt 0.371505 0.310720
vt 0.628495 0.310720
vt 0.371505 0.250000
vt 0.628495 0.250000
vt 0.371505 0.165256
vt 0.628495 0.165256
vt 0.371505 0.099434
vt 0.628495 0.099434
vt 0.192841 0.250000
vt 0.125000 0.250000
vt 0.125000 0.000000
vt 0.314280 0.250000
vt 0.253560 0.250000
vt 0.875000 0.000000
vt 0.875000 0.250000
vt 0.807159 0.250000
vt 0.746440 0.250000
vt 0.685720 0.250000
vt 0.371505 0.500000
vt 0.290776 0.500000
vn 0.000000 0.832313 0.554306
vn 0.000000 0.832313 0.554306
vn 0.000000 0.822259 0.569113
vn 0.000000 0.822259 0.569113
vn 0.000000 0.581151 0.813796
vn 0.000000 0.581151 0.813796
vn 0.000000 0.569062 0.822295
vn 0.000000 0.569062 0.822295
vn 0.000000 0.000000 -1.000000
vn 0.000000 0.000000 -1.000000
vn 0.000000 0.000000 -1.000000
vn 0.000000 0.000000 -1.000000
vn 0.000000 -1.000000 0.000000
vn 0.000000 -1.000000 0.000000
vn 0.000000 -1.000000 0.000000
vn 0.000000 -1.000000 0.000000
vn 0.000000 0.581151 0.813796
vn 0.000000 0.619690 0.784846
vn 0.000000 0.619690 0.784846
vn 0.000000 0.581151 0.813796
vn 0.000000 0.619690 0.784846
vn 0.000000 0.667862 0.744285
vn 0.000000 0.667862 0.744285
vn 0.000000 0.619690 0.784846
vn 0.000000 0.667862 0.744285
vn 0.000000 0.713384 0.700773
vn 0.000000 0.713384 0.700773
vn 0.000000 0.667862 0.744285
vn 0.000000 0.713384 0.700773
vn 0.000000 0.756078 0.654481
vn 0.000000 0.756078 0.654481
vn 0.000000 0.713384 0.700773
vn 0.000000 0.756078 0.654481
vn 0.000000 0.795774 0.605594
vn 0.000000 0.795774 0.605594
vn 0.000000 0.756078 0.654481
vn 0.000000 0.795774 0.605594
vn 0.000000 0.822259 0.569113
vn 0.000000 0.822259 0.569113
vn 0.000000 0.795774 0.605594
vn -1.000000 0.000000 0.000000
vn -1.000000 0.000000 0.000000
vn -1.000000 0.000000 0.000000
vn -1.000000 0.000000 0.000000
vn -1.000000 0.000000 0.000000
vn -1.000000 0.000000 0.000000
vn -1.000000 0.000000 0.000000
vn -1.000000 0.000000 0.000000
vn -1.000000 0.000000 0.000000
vn -1.000000 0.000000 0.000000
vn 1.000000 0.000000 0.000000
vn 1.000000 0.000000 0.000000
vn 1.000000 0.000000 0.000000
vn 1.000000 0.000000 0.000000
vn 1.000000 0.000000 0.000000
vn 1.000000 0.000000 0.000000
vn 1.000000 0.000000 0.000000
vn 1.000000 0.000000 0.000000
vn 1.000000 0.000000 0.000000
vn 1.000000 0.000000 0.000000
s off
g Ramp_2_Big:pCube1
usemtl lambert19SG
f 1/1/1 2/2/2 20/3/3 8/4/4
f 7/5/5 14/6/6 4/7/7 3/33/8
usemtl lambert20SG
f 3/8/9 4/34/10 6/9/11 5/10/12
f 5/10/13 6/9/14 2/11/15 1/12/16
usemtl lambert19SG
f 7/5/17 13/13/18 15/14/19 14/6/20
f 13/13/21 12/15/22 16/16/23 15/14/24
f 12/15/25 11/17/26 17/18/27 16/16/28
f 11/17/29 10/19/30 18/20/31 17/18/32
f 10/19/33 9/21/34 19/22/35 18/20/36
f 9/21/37 8/4/38 20/3/39 19/22/40
f 7/23/41 3/24/42 5/25/43 1/1/44 8/4/45 9/21/46 10/19/47 11/17/48 12/26/49 13/27/50
f 2/2/51 6/28/52 4/29/53 14/30/54 15/31/55 16/32/56 17/18/57 18/20/58 19/22/59 20/3/60
